<svg width="179" height="34" viewBox="0 0 179 34" fill="none" xmlns="http://www.w3.org/2000/svg">
<g clip-path="url(#clip0)">
<path d="M9.94193 21.4784H5.61952C0.821795 21.4784 -1.76275 15.8488 1.37137 12.2097L11.8729 0H28.4199L9.94193 21.4784Z" fill="#191B1F"/>
<path d="M9.94196 21.4784L7.16431 24.7313C4.04505 28.3705 6.62959 34 11.4273 34H19.5077L30.2172 21.4932H9.94196V21.4784Z" fill="#191B1F"/>
<path d="M59.2721 9.06077H51.6488V29.6604H46.5205V9.06077H39V4.93403H59.2721V9.06077ZM71.1512 15.8877C70.4793 15.7971 69.887 15.7518 69.374 15.7518C67.5052 15.7518 66.28 16.3802 65.6984 17.6368V29.6604H60.7585V11.2855H65.425L65.5624 13.4762C66.5533 11.7893 67.9266 10.9458 69.681 10.9458C70.2289 10.9458 70.7419 11.0194 71.2199 11.1666L71.1512 15.8877ZM83.7493 29.6604C83.5204 29.2188 83.3562 28.6697 83.2525 28.0131C82.0569 29.3377 80.5018 30 78.5873 30C76.775 30 75.2711 29.4792 74.0742 28.4376C72.8894 27.3961 72.297 26.0827 72.297 24.4977C72.297 22.5504 73.02 21.056 74.4673 20.0144C75.9255 18.9728 78.0285 18.4464 80.7751 18.435H83.0478V17.3821C83.0478 16.533 82.8257 15.8537 82.3814 15.3443C81.9478 14.8348 81.2585 14.5801 80.3133 14.5801C79.4813 14.5801 78.8256 14.7782 78.3476 15.1744C77.8804 15.5706 77.6461 16.1141 77.6461 16.8046H72.7063C72.7063 15.7405 73.0375 14.7554 73.6986 13.8498C74.3596 12.9441 75.294 12.2364 76.5017 11.727C77.7094 11.2062 79.0652 10.9458 80.5691 10.9458C82.8486 10.9458 84.6554 11.5176 85.9883 12.661C87.332 13.7931 88.0052 15.3895 88.0052 17.4501V25.4148C88.016 27.1583 88.261 28.4773 88.7403 29.3717V29.6604H83.7493ZM79.663 26.2469C80.3928 26.2469 81.0646 26.0885 81.6812 25.7714C82.2965 25.443 82.7516 25.0072 83.0478 24.4637V21.305H81.2019C78.7286 21.305 77.4132 22.1542 77.253 23.8524L77.2368 24.1411C77.2368 24.7525 77.4536 25.2563 77.8858 25.6525C78.3193 26.0487 78.9117 26.2469 79.663 26.2469ZM96.346 11.2855L96.4995 13.4083C97.8217 11.7666 99.5935 10.9458 101.816 10.9458C103.775 10.9458 105.235 11.5176 106.192 12.661C107.149 13.8045 107.638 15.514 107.661 17.7897V29.6604H102.721V17.9085C102.721 16.867 102.494 16.1141 102.039 15.65C101.582 15.1744 100.824 14.9367 99.7645 14.9367C98.375 14.9367 97.3316 15.5254 96.6369 16.7028V29.6604H91.697V11.2855H96.346ZM121.439 24.5826C121.439 23.9825 121.137 23.5127 120.532 23.1731C119.94 22.8221 118.983 22.5108 117.661 22.239C113.262 21.322 111.063 19.4653 111.063 16.6689C111.063 15.0385 111.741 13.6799 113.098 12.5931C114.464 11.4948 116.248 10.9458 118.447 10.9458C120.795 10.9458 122.669 11.4948 124.071 12.5931C125.483 13.6913 126.19 15.1178 126.19 16.8726H121.25C121.25 16.1707 121.023 15.5932 120.566 15.1404C120.111 14.6762 119.399 14.4442 118.429 14.4442C117.599 14.4442 116.954 14.6309 116.499 15.0045C116.042 15.3781 115.815 15.8537 115.815 16.4312C115.815 16.9745 116.071 17.4161 116.584 17.7557C117.109 18.084 117.985 18.3727 119.216 18.6218C120.446 18.8596 121.484 19.1313 122.327 19.4369C124.936 20.388 126.241 22.0353 126.241 24.3789C126.241 26.0545 125.518 27.413 124.071 28.4546C122.623 29.4849 120.755 30 118.464 30C116.915 30 115.536 29.7283 114.328 29.1848C113.131 28.6301 112.192 27.8772 111.508 26.9263C110.824 25.9639 110.482 24.9279 110.482 23.8184H115.166C115.21 24.6902 115.536 25.3582 116.139 25.8224C116.744 26.2866 117.553 26.5187 118.567 26.5187C119.512 26.5187 120.224 26.3432 120.703 25.9922C121.194 25.6299 121.439 25.16 121.439 24.5826ZM134.651 29.6604H129.695V11.2855H134.651V29.6604ZM129.404 6.53037C129.404 5.79447 129.649 5.18876 130.139 4.71327C130.64 4.23776 131.318 4 132.172 4C133.016 4 133.688 4.23776 134.19 4.71327C134.691 5.18876 134.941 5.79447 134.941 6.53037C134.941 7.2776 134.686 7.88897 134.173 8.3645C133.67 8.83992 133.004 9.07776 132.172 9.07776C131.341 9.07776 130.668 8.83992 130.155 8.3645C129.654 7.88897 129.404 7.2776 129.404 6.53037ZM144.65 6.76813V11.2855H147.813V14.8857H144.65V24.0561C144.65 24.7355 144.781 25.2223 145.043 25.5166C145.306 25.811 145.807 25.9582 146.547 25.9582C147.094 25.9582 147.579 25.9186 148 25.8394V29.5584C147.032 29.8529 146.034 30 145.01 30C141.545 30 139.779 28.2622 139.71 24.7864V14.8857H137.009V11.2855H139.71V6.76813H144.65Z" fill="black"/>
</g>
<defs>
<clipPath id="clip0">
<rect width="179" height="34" fill="white"/>
</clipPath>
</defs>
</svg>
